<svg width="50" height="51" viewBox="0 0 50 51" fill="none" xmlns="http://www.w3.org/2000/svg">
<path d="M8.25585 0.367781C1.47215 0.390734 0.422074 0.406036 0.375611 0.505498C0.33844 0.566706 0.487123 0.780932 0.728734 1.01811C1.22125 1.50777 1.63942 1.97448 1.63942 2.03569C1.63942 2.05864 1.74164 2.20401 1.85316 2.36468C1.97396 2.5177 2.20628 2.96145 2.36426 3.35165L2.66162 4.04789V18.6689V33.2898L2.37355 34.1544C1.95538 35.4015 1.59296 35.9447 0.208341 37.3754C-0.256296 37.8651 -0.274881 37.8574 3.77675 37.7962C5.74681 37.7656 9.89137 37.735 12.9859 37.735L18.6173 37.7274L18.8124 37.9033L19.0168 38.0793V42.0578C19.0168 46.7937 18.9704 47.1533 18.227 48.3698C18.0876 48.5994 17.688 49.1043 17.3349 49.5022C16.9817 49.8924 16.6937 50.2443 16.6937 50.2826C16.6937 50.3208 18.8867 50.3514 21.8976 50.3514C26.451 50.3514 27.1108 50.3361 27.1573 50.2367C27.213 50.1143 27.0179 49.8235 26.7019 49.5481C26.4324 49.3109 25.6147 48.2704 25.6147 48.1556C25.6147 48.1021 25.5775 47.9949 25.5218 47.9184C25.15 47.3829 25.1222 47.1763 25.085 44.0777C25.0571 42.1037 25.0757 40.9867 25.1408 40.849L25.2337 40.6424L29.6756 40.6118C34.926 40.5735 36.7938 40.4664 38.1785 40.1298C38.4201 40.0686 38.671 40.0227 38.7453 40.0227C38.9498 40.0227 40.576 39.5713 41.1336 39.3647C42.1558 38.9745 43.3266 38.4695 43.9214 38.1711C45.2409 37.4978 46.672 36.3961 47.5548 35.3785C47.8057 35.0954 48.0381 34.82 48.0752 34.7741C48.2704 34.5599 48.4098 34.3533 48.7071 33.8254C48.8837 33.5117 49.0788 33.1904 49.1253 33.1215C49.1811 33.045 49.2182 32.9455 49.2182 32.8996C49.2182 32.8537 49.274 32.7083 49.3483 32.5783C49.4134 32.4406 49.5435 32.0733 49.6178 31.7596C49.7015 31.4459 49.8223 30.9792 49.8873 30.7268C49.9617 30.436 50.0081 29.7704 49.9988 28.9288C49.9895 27.7352 49.9524 27.4751 49.7015 26.557C49.3112 25.1033 48.9023 24.2464 48.0752 23.1141C47.2853 22.0429 46.1052 20.9794 44.7113 20.0843C43.6891 19.4263 41.2729 18.3934 40.1578 18.1333C40.0091 18.1027 39.6467 18.0109 39.3679 17.942C38.7546 17.7966 37.6952 17.6054 37.1841 17.5595C36.9797 17.5365 36.3106 17.4677 35.6973 17.3988C34.9539 17.3223 34.2105 17.2917 33.467 17.3146C31.4226 17.3835 31.3483 17.2917 32.6586 16.2435C33.1604 15.838 33.7179 15.3254 33.8945 15.1188C34.0711 14.9046 34.229 14.721 34.2569 14.698C34.4242 14.5603 35.1862 13.2979 35.4185 12.7776C35.7902 11.936 35.8832 11.4005 35.8832 9.95442C35.8832 8.43953 35.7902 7.94987 35.3442 6.97055C34.6379 5.41741 33.2254 3.82601 31.7479 2.9079C31.5156 2.77018 31.3111 2.63246 31.2833 2.60951C31.2554 2.57891 30.9208 2.40293 30.5398 2.20401C29.3318 1.59193 28.0773 1.17113 26.1258 0.727376C24.4624 0.352479 22.864 0.321875 8.25585 0.367781ZM21.8047 4.02494C22.6968 4.08614 23.5145 4.1703 23.6167 4.20856C23.719 4.23916 24.0535 4.33097 24.3602 4.40748C26.8599 5.03486 29.2296 7.23833 29.6199 9.30409C29.8522 10.5282 29.8336 10.995 29.4619 12.3262C28.9601 14.0859 26.767 15.8533 24.2208 16.5342C23.8862 16.6184 23.4774 16.7255 23.3101 16.7714C22.6968 16.9321 20.0483 16.9856 14.6307 16.9397C9.28735 16.8938 9.06432 16.8862 8.91564 16.7408C8.75766 16.6031 8.74837 16.2206 8.77624 10.3829C8.81342 4.26211 8.81342 4.17795 8.99927 4.04024C9.17583 3.91782 9.58471 3.91017 14.6864 3.91017C18.8031 3.91017 20.5966 3.94077 21.8047 4.02494ZM30.6328 20.2143C34.1082 20.3215 34.8702 20.3903 36.2735 20.7576C36.4872 20.8111 36.6916 20.8876 36.7288 20.9182C36.766 20.9488 36.8496 20.9718 36.9146 20.9718C37.0447 20.9718 38.3457 21.4691 38.8661 21.7216C39.4609 22.0047 40.4924 22.678 40.9012 23.0528C41.7562 23.8409 42.5368 24.9732 42.8527 25.9067C42.9363 26.1591 43.0386 26.4346 43.085 26.5264C43.1222 26.6105 43.2151 27.1385 43.2802 27.6893C43.3731 28.5156 43.3731 28.9058 43.2802 29.8239C43.2151 30.4437 43.1222 31.0175 43.085 31.1016C43.0386 31.1935 42.9363 31.4689 42.8527 31.7214C42.3788 33.1292 40.9849 34.7359 39.498 35.5622C38.6152 36.0595 37.1656 36.6333 36.3013 36.8475C36.0225 36.9087 35.6601 37.0005 35.5114 37.0388C34.703 37.2454 33.8109 37.2913 29.6291 37.3219L25.243 37.3525L25.1408 37.1459C25.0757 37.0005 25.0571 34.9424 25.0757 30.8492L25.1129 24.759L25.3731 24.2234C25.5125 23.9251 25.7727 23.4507 25.9492 23.1523C26.2373 22.6703 26.2559 22.6167 26.1072 22.5632C25.9028 22.502 18.069 22.4867 17.8645 22.5479C17.6508 22.6167 17.6787 22.7468 18.0318 23.2824C18.1991 23.5502 18.45 24.0245 18.5708 24.3382C19.054 25.5241 19.0633 25.6083 19.054 30.0611C19.0447 33.8407 19.0261 34.2309 18.8867 34.3457C18.7474 34.4604 18.292 34.4757 13.9058 34.4757C9.38957 34.4757 9.07361 34.4681 8.91564 34.338C8.75766 34.2079 8.74837 33.8254 8.73907 27.4904C8.73907 23.6496 8.77624 20.6734 8.82271 20.528C8.86917 20.3827 8.98998 20.245 9.11078 20.2067C9.37098 20.1149 27.7334 20.1225 30.6328 20.2143Z" fill="white"/>
</svg>
