<svg width="40" height="40" viewBox="0 0 40 40" fill="none" xmlns="http://www.w3.org/2000/svg">
<path d="M5.72242 28.9664C4.7011 29.4469 3.68836 30.0489 2.71227 30.756C2.41328 30.9726 2.03805 31.0014 1.70836 30.8332C1.37391 30.6624 1.17422 30.3357 1.17422 29.9594V15.0288C1.17385 14.6625 1.25202 14.3003 1.40344 13.9667C1.55486 13.6332 1.77603 13.3359 2.05203 13.0951C2.81024 12.4344 4.03695 11.4769 5.57578 10.667C5.71358 10.5944 5.81692 10.4701 5.86308 10.3214C5.90924 10.1727 5.89445 10.0117 5.82195 9.87387C5.78606 9.80563 5.73707 9.74514 5.67779 9.69583C5.61851 9.64653 5.5501 9.60939 5.47646 9.58653C5.40283 9.56367 5.32541 9.55554 5.24863 9.5626C5.17185 9.56966 5.09721 9.59179 5.02899 9.6277C3.39 10.4904 2.08602 11.5079 1.28078 12.2096C0.878223 12.5607 0.555604 12.994 0.334667 13.4803C0.113731 13.9666 -0.000388322 14.4947 9.92753e-07 15.0288V29.9595C9.92753e-07 30.7737 0.450001 31.5093 1.17445 31.8793C1.89086 32.2455 2.74531 32.1823 3.40094 31.7072C4.31774 31.0431 5.26688 30.4786 6.22203 30.0293C6.36293 29.963 6.47173 29.8435 6.5245 29.697C6.57727 29.5505 6.5697 29.389 6.50344 29.2481C6.47067 29.1783 6.42447 29.1156 6.36748 29.0637C6.31049 29.0118 6.24382 28.9716 6.17129 28.9454C6.09876 28.9193 6.02178 28.9077 5.94477 28.9113C5.86775 28.9149 5.79219 28.9336 5.72242 28.9664ZM38.8734 11.0554C38.1766 10.6793 37.3314 10.7165 36.6677 11.1525C35.0009 12.2473 32.1973 13.4736 28.3055 13.0972C26.7409 12.946 25.4516 12.5354 24.252 12.0067C25.7012 9.05754 25.4092 6.35386 23.4047 4.34339L19.4627 0.389622C18.8835 -0.222567 17.795 -0.0928792 17.3716 0.635092C16.5441 1.97447 16.3437 3.3894 16.79 4.66706C16.3842 5.06909 15.7631 5.84214 15.6651 6.87863C15.6182 7.37472 15.6943 7.86598 15.8909 8.34902C14.6437 8.06746 13.2291 7.89644 11.565 7.89644C10.1517 7.89644 8.70422 8.15066 7.26281 8.65215C7.11857 8.70549 7.001 8.81327 6.93536 8.95235C6.86972 9.09143 6.86124 9.25071 6.91176 9.39597C6.96228 9.54123 7.06775 9.66088 7.20553 9.72922C7.3433 9.79755 7.50238 9.80913 7.64859 9.76145C8.9657 9.30325 10.2834 9.07098 11.565 9.07098C16.1499 9.07098 18.7553 10.4693 21.275 11.8216C23.2593 12.8866 25.3112 13.9879 28.1925 14.2664C28.7228 14.3176 29.2342 14.3414 29.7277 14.3414C33.1723 14.3412 35.7164 13.1826 37.3123 12.1343C37.9293 11.6965 38.8527 12.1901 38.8259 12.9477V27.9298C38.8258 28.295 38.7478 28.656 38.5973 28.9888C38.4467 29.3215 38.227 29.6183 37.9527 29.8595C36.4779 31.1565 33.2633 33.261 28.3055 32.7815C25.6587 32.5257 23.7991 31.5276 21.8302 30.4709C19.1827 29.05 16.4451 27.5807 11.5651 27.5807C10.3946 27.5807 9.19633 27.7555 8.00359 28.1003C7.854 28.1436 7.72771 28.2445 7.65252 28.3809C7.57733 28.5173 7.5594 28.6779 7.60266 28.8275C7.62405 28.9016 7.65982 28.9707 7.70794 29.031C7.75606 29.0912 7.81557 29.1414 7.88309 29.1787C7.95061 29.2159 8.0248 29.2395 8.10143 29.248C8.17806 29.2566 8.25562 29.25 8.32969 29.2285C9.41641 28.9143 10.5048 28.755 11.565 28.755C13.4255 28.755 14.9601 28.9853 16.2952 29.3493C16.3109 29.8596 16.4347 30.2755 16.5522 30.5596C15.882 31.384 15.5834 32.2421 15.6642 33.1152C15.7605 34.1547 16.3833 34.93 16.79 35.3328C16.3438 36.6104 16.5442 38.0255 17.3716 39.3648C17.7957 40.092 18.8809 40.2233 19.4627 39.6101L23.4047 35.6564C24.13 34.929 24.6338 34.1099 24.9093 33.2147C25.8929 33.5645 26.9675 33.8319 28.1924 33.9504C28.7246 34.0018 29.2384 34.0258 29.734 34.0258C34.2663 34.0258 37.2699 32.0236 38.7279 30.7413C39.1275 30.3899 39.4477 29.9575 39.667 29.4727C39.8864 28.9879 39.9999 28.4619 40 27.9298V12.9476C40 12.1436 39.5788 11.4361 38.8734 11.0554ZM23.1909 11.5023C22.7358 11.2725 22.2859 11.0312 21.8302 10.7866C20.5146 10.0806 19.1766 9.36278 17.5648 8.81903C17.0262 8.20145 16.7801 7.58918 16.8333 6.99746C16.9232 5.99847 17.8307 5.30909 17.8377 5.30378C17.9477 5.22313 18.0261 5.10675 18.0596 4.97459C18.0931 4.84244 18.0796 4.70275 18.0213 4.57948C17.4103 3.28573 17.8739 2.05611 18.3704 1.25244C18.4544 1.149 18.5314 1.14166 18.6313 1.21892L22.5734 5.17269C23.7352 6.338 24.7433 8.36606 23.1909 11.5023ZM22.5733 34.8273L18.6313 38.7811C18.5316 38.8584 18.4543 38.8509 18.3704 38.7476C17.8738 37.9439 17.4102 36.7143 18.0213 35.4205C18.0795 35.2973 18.093 35.1576 18.0595 35.0254C18.026 34.8932 17.9476 34.7769 17.8377 34.6962C17.8285 34.6895 16.9254 34.0011 16.8333 33.0071C16.7745 32.3723 17.06 31.7142 17.6818 31.0509C17.8683 30.8521 17.8964 30.5557 17.7455 30.3286C17.7432 30.3252 17.6039 30.1015 17.5236 29.7385C18.9184 30.2415 20.1061 30.8785 21.2749 31.5058C22.0918 31.9443 22.9203 32.3887 23.8133 32.7795C23.6002 33.5265 23.185 34.2138 22.5733 34.8273Z" fill="#142134"/>
<path d="M36.3486 26.708C36.5043 26.708 36.6536 26.6461 36.7637 26.536C36.8739 26.4259 36.9357 26.2765 36.9357 26.1208V18.0897C36.9357 17.934 36.8739 17.7846 36.7637 17.6745C36.6536 17.5644 36.5043 17.5025 36.3486 17.5025C35.5482 17.5025 34.8393 16.9908 34.5845 16.2292C34.5351 16.0817 34.4293 15.9598 34.2901 15.8902C34.151 15.8207 33.9899 15.8092 33.8423 15.8583C32.1213 16.4311 30.2584 16.6257 28.3055 16.4369C25.6567 16.1809 23.7943 15.1263 21.8226 14.0097C19.2998 12.5811 16.4404 10.9619 11.5651 10.9619C9.60641 10.9619 7.60375 11.4704 5.61281 12.4732C5.47709 12.5415 5.37315 12.6599 5.32284 12.8033C5.27253 12.9467 5.27978 13.104 5.34305 13.2422C5.45527 13.4864 5.51314 13.7522 5.51266 14.021C5.51266 15.0511 4.67773 15.8893 3.65156 15.8893C3.49584 15.8893 3.34651 15.9512 3.23641 16.0613C3.12631 16.1714 3.06445 16.3207 3.06445 16.4765V24.5076C3.06444 24.5847 3.07962 24.661 3.10912 24.7323C3.13862 24.8035 3.18187 24.8683 3.23639 24.9228C3.29091 24.9773 3.35563 25.0206 3.42687 25.0501C3.4981 25.0796 3.57446 25.0948 3.65156 25.0948C4.44469 25.0948 5.15156 25.6004 5.41055 26.3528C5.51383 26.6763 5.91203 26.8445 6.21578 26.6929C8.01531 25.8452 9.81508 25.4154 11.5651 25.4154C16.15 25.4154 18.7554 26.8137 21.275 28.166C22.6945 28.9278 24.1622 29.7156 25.9154 30.1946C25.9898 30.215 26.0674 30.2205 26.1439 30.2108C26.2204 30.2011 26.2943 30.1764 26.3612 30.1382C26.4282 30.0999 26.4869 30.0489 26.5342 29.9879C26.5814 29.927 26.6161 29.8573 26.6364 29.7829C26.6567 29.7085 26.6622 29.6309 26.6525 29.5544C26.6429 29.4779 26.6182 29.4041 26.58 29.3371C26.5418 29.2701 26.4907 29.2113 26.4298 29.1641C26.3689 29.1168 26.2992 29.0821 26.2248 29.0617C24.6 28.6178 23.2546 27.8957 21.8302 27.1312C19.1827 25.7102 16.4452 24.241 11.5651 24.241C9.81586 24.241 8.03047 24.6273 6.24984 25.3901C5.80875 24.6581 5.07703 24.1434 4.23859 23.9777V17.0066C5.63227 16.7317 6.6868 15.4975 6.6868 14.0211C6.6868 13.7755 6.65805 13.5345 6.60086 13.3C8.27273 12.5275 9.94031 12.1364 11.565 12.1364C16.131 12.1364 18.7303 13.6083 21.2441 15.0318C23.2359 16.1596 25.2954 17.3259 28.1925 17.6059C30.1201 17.7922 31.9719 17.6323 33.7053 17.1306C33.9201 17.5127 34.2151 17.8437 34.57 18.1008C34.925 18.3579 35.3315 18.5349 35.7615 18.6198V25.5907C34.3679 25.8656 33.3133 27.0999 33.3133 28.5763C33.3133 28.7247 33.3239 28.8719 33.345 29.0172C31.8051 29.4581 30.1581 29.6052 28.4414 29.4545C28.1187 29.4259 27.8336 29.6649 27.8052 29.9881C27.7916 30.1432 27.8402 30.2974 27.9402 30.4167C28.0403 30.5361 28.1836 30.6108 28.3387 30.6244C28.8086 30.6657 29.2738 30.6863 29.7338 30.6863C31.3023 30.6863 32.8106 30.4469 34.233 29.9711C34.5393 29.8755 34.7142 29.5138 34.5988 29.2143C34.5249 29.0098 34.4872 28.7939 34.4875 28.5763C34.4875 27.5461 35.3224 26.708 36.3486 26.708Z" fill="#142134"/>
<path d="M16.9224 20.8241C16.9224 23.0175 18.6344 24.8019 20.7388 24.8019C22.8433 24.8019 24.5553 23.0175 24.5553 20.8241C24.5553 18.6307 22.8433 16.8462 20.7388 16.8462C18.6344 16.8463 16.9224 18.6307 16.9224 20.8241ZM23.3811 20.8241C23.3811 22.3699 22.1958 23.6275 20.7388 23.6275C19.2818 23.6275 18.0965 22.3699 18.0965 20.8241C18.0965 19.2783 19.2818 18.0206 20.7388 18.0206C22.1958 18.0206 23.3811 19.2783 23.3811 20.8241Z" fill="#142134"/>
</svg>
