<svg width="32" height="33" viewBox="0 0 32 33" fill="none" xmlns="http://www.w3.org/2000/svg">
<path d="M5.28374 0.361899C0.942178 0.376589 0.270127 0.386382 0.240391 0.450038C0.216601 0.489211 0.311759 0.626316 0.46639 0.778111C0.7816 1.09149 1.04923 1.39019 1.04923 1.42936C1.04923 1.44405 1.11465 1.53709 1.18602 1.63991C1.26334 1.73785 1.41202 2.02185 1.51312 2.27158L1.70344 2.71717V12.0746V21.432L1.51907 21.9853C1.25144 22.7835 1.01949 23.1311 0.133338 24.0468C-0.164029 24.3602 -0.175924 24.3553 2.41712 24.3161C3.67796 24.2965 6.33048 24.2769 8.31095 24.2769L11.915 24.272L12.0399 24.3847L12.1708 24.4973V27.0435C12.1708 30.0745 12.141 30.3047 11.6653 31.0832C11.576 31.2301 11.3203 31.5533 11.0943 31.8079C10.8683 32.0576 10.6839 32.2829 10.6839 32.3074C10.6839 32.3319 12.0875 32.3514 14.0145 32.3514C16.9287 32.3514 17.3509 32.3416 17.3807 32.278C17.4163 32.1996 17.2914 32.0136 17.0892 31.8373C16.9168 31.6855 16.3934 31.0196 16.3934 30.9461C16.3934 30.9118 16.3696 30.8433 16.3339 30.7943C16.096 30.4516 16.0782 30.3193 16.0544 28.3362C16.0366 27.0729 16.0485 26.358 16.0901 26.2699L16.1496 26.1376L18.9924 26.1181C22.3526 26.0936 23.5481 26.025 24.4342 25.8096C24.5888 25.7704 24.7494 25.741 24.797 25.741C24.9278 25.741 25.9686 25.4521 26.3255 25.3199C26.9797 25.0702 27.729 24.747 28.1097 24.556C28.9542 24.1251 29.8701 23.42 30.4351 22.7688C30.5957 22.5876 30.7444 22.4113 30.7681 22.3819C30.893 22.2448 30.9823 22.1126 31.1726 21.7748C31.2856 21.574 31.4105 21.3683 31.4402 21.3243C31.4759 21.2753 31.4997 21.2117 31.4997 21.1823C31.4997 21.1529 31.5354 21.0599 31.5829 20.9766C31.6246 20.8885 31.7078 20.6534 31.7554 20.4527C31.8089 20.2519 31.8862 19.9532 31.9279 19.7916C31.9755 19.6056 32.0052 19.1796 31.9992 18.6409C31.9933 17.8771 31.9695 17.7106 31.8089 17.123C31.5591 16.1926 31.2975 15.6442 30.7681 14.9195C30.2626 14.234 29.5073 13.5534 28.6152 12.9805C27.961 12.5594 26.4147 11.8983 25.701 11.7318C25.6058 11.7122 25.3739 11.6535 25.1955 11.6094C24.803 11.5164 24.125 11.394 23.7978 11.3646C23.667 11.3499 23.2388 11.3058 22.8463 11.2617C22.3705 11.2128 21.8947 11.1932 21.4189 11.2079C20.1105 11.252 20.0629 11.1932 20.9015 10.5224C21.2226 10.2628 21.5795 9.93477 21.6925 9.80256C21.8055 9.66545 21.9066 9.54794 21.9244 9.53325C22.0315 9.44511 22.5192 8.63717 22.6679 8.3042C22.9057 7.76557 22.9652 7.42281 22.9652 6.49735C22.9652 5.52782 22.9057 5.21444 22.6203 4.58767C22.1683 3.59366 21.2643 2.57517 20.3186 1.98757C20.17 1.89943 20.0391 1.8113 20.0213 1.79661C20.0034 1.77702 19.7893 1.6644 19.5455 1.53709C18.7723 1.14536 17.9694 0.876043 16.7205 0.59204C15.6559 0.352106 14.633 0.33252 5.28374 0.361899ZM13.955 2.70248C14.5259 2.74165 15.0493 2.79551 15.1147 2.82C15.1801 2.83958 15.3942 2.89834 15.5905 2.94731C17.1903 3.34883 18.7069 4.75905 18.9567 6.08114C19.1054 6.86459 19.0935 7.16329 18.8556 8.0153C18.5344 9.14152 17.1309 10.2726 15.5013 10.7084C15.2872 10.7623 15.0255 10.8308 14.9185 10.8602C14.5259 10.9631 12.8309 10.9973 9.36363 10.968C5.9439 10.9386 5.80116 10.9337 5.70601 10.8406C5.6049 10.7525 5.59895 10.5077 5.6168 6.77156C5.64059 2.85427 5.64059 2.80041 5.75953 2.71227C5.87253 2.63393 6.13422 2.62903 9.39931 2.62903C12.034 2.62903 13.1818 2.64862 13.955 2.70248ZM19.605 13.0637C21.8293 13.1323 22.317 13.1763 23.215 13.4114C23.3518 13.4456 23.4826 13.4946 23.5064 13.5142C23.5302 13.5338 23.5837 13.5485 23.6254 13.5485C23.7086 13.5485 24.5413 13.8667 24.8743 14.0283C25.255 14.2095 25.9151 14.6404 26.1768 14.8803C26.7239 15.3847 27.2235 16.1094 27.4257 16.7068C27.4793 16.8684 27.5447 17.0446 27.5744 17.1034C27.5982 17.1573 27.6577 17.4951 27.6993 17.8477C27.7588 18.3765 27.7588 18.6262 27.6993 19.2138C27.6577 19.6105 27.5982 19.9777 27.5744 20.0316C27.5447 20.0903 27.4793 20.2666 27.4257 20.4282C27.1224 21.3292 26.2303 22.3575 25.2787 22.8863C24.7137 23.2046 23.786 23.5718 23.2329 23.7089C23.0544 23.7481 22.8225 23.8069 22.7273 23.8313C22.2099 23.9636 21.639 23.9929 18.9627 24.0125L16.1555 24.0321L16.0901 23.8999C16.0485 23.8069 16.0366 22.4897 16.0485 19.87L16.0722 15.9723L16.2388 15.6295C16.328 15.4386 16.4945 15.135 16.6075 14.944C16.7919 14.6355 16.8038 14.6012 16.7086 14.567C16.5778 14.5278 11.5641 14.518 11.4333 14.5572C11.2965 14.6012 11.3144 14.6845 11.5404 15.0272C11.6474 15.1986 11.808 15.5022 11.8853 15.703C12.1946 16.4619 12.2005 16.5158 12.1946 19.3656C12.1886 21.7846 12.1767 22.0343 12.0875 22.1077C11.9983 22.1812 11.7069 22.191 8.89973 22.191C6.00932 22.191 5.80711 22.1861 5.70601 22.1028C5.6049 22.0196 5.59895 21.7748 5.59301 17.7204C5.59301 15.2623 5.6168 13.3575 5.64653 13.2645C5.67627 13.1714 5.75359 13.0833 5.8309 13.0588C5.99743 13 17.7494 13.0049 19.605 13.0637Z" fill="black"/>
</svg>
