<svg width="35" height="35" viewBox="0 0 35 35" fill="none" xmlns="http://www.w3.org/2000/svg">
<path d="M34.7693 20.3644L30.9275 16.4085C30.8096 16.287 30.6632 16.2382 30.5205 16.2728C30.3778 16.3073 30.2504 16.4223 30.1661 16.5926L29.9683 16.9925L27.679 13.9772C27.1702 12.7782 22.7165 2.29185 22.0514 1.051C21.4451 -0.0804418 20.6501 -0.0342017 19.643 0.024613C19.1764 0.051743 17.8357 0.238781 16.7365 0.404829C16.5939 0.429462 16.4636 0.534384 16.374 0.696928C16.2843 0.859472 16.2424 1.06658 16.2573 1.27352C16.2722 1.48045 16.3427 1.67059 16.4536 1.80284C16.5645 1.9351 16.7068 1.99886 16.8499 1.98035C18.2102 1.7749 19.3237 1.62845 19.6868 1.60726C20.6917 1.54904 20.9504 1.58003 21.1874 2.02233C21.7108 2.99891 25.0795 10.8742 26.7875 14.9021C26.8145 14.9656 26.8475 15.0233 26.8857 15.0735L29.3268 18.2887L28.3816 20.1996C28.3397 20.2842 28.3098 20.3799 28.2935 20.4812C28.2772 20.5825 28.2748 20.6875 28.2865 20.7901C28.2982 20.8927 28.3238 20.991 28.3617 21.0794C28.3996 21.1677 28.4492 21.2444 28.5076 21.3049C28.5659 21.3655 28.632 21.4089 28.7019 21.4325C28.7719 21.4561 28.8443 21.4596 28.9152 21.4426C28.9861 21.4257 29.0539 21.3887 29.1149 21.3337C29.1759 21.2788 29.2288 21.207 29.2706 21.1225L30.7378 18.1564L34.1352 21.6552C34.1937 21.717 34.26 21.7613 34.3304 21.7857C34.4008 21.8101 34.4738 21.814 34.5453 21.7972C34.6167 21.7804 34.6851 21.7432 34.7466 21.6878C34.808 21.6324 34.8613 21.5599 34.9032 21.4745C34.9452 21.3891 34.975 21.2925 34.991 21.1903C35.007 21.088 35.0088 20.9822 34.9963 20.8789C34.9839 20.7757 34.9574 20.677 34.9184 20.5887C34.8794 20.5004 34.8287 20.4241 34.7693 20.3644ZM28.2522 33.5561L24.8857 29.9851L28.3285 23.0265C28.4129 22.8557 28.4471 22.6434 28.4235 22.4361C28.3999 22.2288 28.3204 22.0436 28.2025 21.9212C28.0846 21.7988 27.938 21.7492 27.7948 21.7835C27.6517 21.8177 27.5239 21.9328 27.4394 22.1036L24.5033 28.038C23.6449 27.9662 21.0454 27.6306 19.6237 26.1522C18.6846 25.1757 17.9288 23.3781 17.377 22.0657C17.2373 21.7333 17.1053 21.4194 16.9874 21.1614C16.5506 20.2033 15.8162 19.8759 14.4829 19.2815C14.2846 19.1932 10.6083 18.1014 9.61569 17.3988C8.8111 16.8293 8.26778 16.3175 7.98504 15.7406C7.73075 15.2216 7.67538 14.6703 7.81086 14.0054C8.10529 12.5608 8.84993 12.4488 9.5878 12.4543C10.3136 12.4616 12.0923 13.4686 13.0972 14.1929C14.123 14.932 16.5415 16.1554 17.7102 15.9667C18.5652 15.8275 19.2797 14.5436 19.5471 13.9981C19.756 13.5723 20.4221 12.0859 20.2273 10.845C20.0086 9.45348 18.9832 6.45651 18.94 6.32997C18.898 6.20751 18.8348 6.10289 18.7566 6.02628C18.6784 5.94967 18.5878 5.90369 18.4937 5.89282C18.455 5.88826 18.0791 5.85034 16.8154 5.89777C15.5272 5.94579 13.4145 6.37858 13.3252 6.3971C13.2246 6.41776 13.1299 6.47866 13.0518 6.57295C13.0518 6.57295 12.8828 6.77712 12.5994 7.11901L10.24 5.31645C10.9536 4.41235 11.4986 3.72875 11.6287 3.57379C11.9239 3.22269 12.4099 2.82128 12.5857 2.75128C12.7522 2.68504 13.5409 2.51364 15.2556 2.23155C15.3997 2.20782 15.5315 2.10214 15.6218 1.93774C15.7121 1.77334 15.7537 1.56369 15.7373 1.35492C15.7209 1.14615 15.648 0.955361 15.5345 0.824516C15.421 0.69367 15.2762 0.633492 15.1321 0.657218C13.5329 0.920399 12.5786 1.111 12.2959 1.22348C11.9107 1.37676 11.2894 1.92718 10.9345 2.34918C10.6511 2.68583 5.36469 9.35695 4.7863 10.2944C4.21749 11.2163 3.26551 12.7599 3.93639 14.6866C4.04712 15.0096 4.19427 15.3036 4.37177 15.5566L0.451841 26.3214C-0.0321673 27.6504 -0.131863 29.2035 0.174686 30.6389C0.481234 32.0744 1.16892 33.2747 2.08645 33.9758C3.00398 34.6768 4.07621 34.8212 5.06725 34.3772C6.05829 33.9332 6.88696 32.9371 7.37097 31.6081L9.87634 24.7288C9.96803 24.7529 10.061 24.765 10.1542 24.765C10.5122 24.7548 10.8622 24.61 11.1699 24.3448C11.2384 24.7267 11.3778 25.0741 11.5729 25.3495C11.768 25.6249 12.0113 25.8177 12.2766 25.9071C12.3901 25.9471 12.5065 25.9669 12.6232 25.966C13.3258 25.966 14.2192 25.311 14.7654 23.8987C15.0157 23.2516 15.4213 22.2216 15.6791 21.5686C15.8372 21.6708 15.974 21.8315 16.0756 22.0346C16.1822 22.2684 16.3033 22.5565 16.4434 22.8899C17.0441 24.3186 17.8667 26.275 18.9864 27.4394C20.3514 28.8588 22.5008 29.3648 23.759 29.544L23.682 29.6995C23.5981 29.8691 23.5637 30.0799 23.5865 30.2859C23.6092 30.492 23.6872 30.6768 23.8034 30.8001L27.6067 34.8343C27.6645 34.8991 27.7306 34.9464 27.8013 34.9735C27.8719 35.0007 27.9456 35.007 28.0179 34.9922C28.0902 34.9774 28.1598 34.9418 28.2225 34.8874C28.2852 34.833 28.3397 34.761 28.3828 34.6755C28.4259 34.5901 28.4568 34.4931 28.4736 34.3901C28.4904 34.2871 28.4928 34.1803 28.4807 34.0759C28.4685 33.9716 28.442 33.8718 28.4028 33.7825C28.3635 33.6933 28.3123 33.6163 28.2522 33.5561ZM19.1503 11.5704C19.0981 11.9549 18.9365 12.508 18.6556 13.0809C18.2575 13.8928 17.8174 14.3552 17.5883 14.3925C16.9347 14.499 15.2763 13.8267 14.1053 13.1166L14.1491 12.9963L15.2702 11.9909L19.1503 11.5704ZM16.8438 7.48111C17.4687 7.45764 17.8661 7.45606 18.1039 7.45992C18.3246 8.1255 18.6486 9.14317 18.8853 10.0103L15.055 10.4253C14.9673 10.4348 14.8825 10.4748 14.8078 10.5419L13.9452 11.3158L14.5928 9.53715C14.6605 9.35134 14.6744 9.13422 14.6315 8.93353C14.5887 8.73284 14.4925 8.56502 14.3643 8.467L13.6602 7.92905C14.2 7.8237 15.8279 7.51923 16.8438 7.48131V7.48111ZM13.3704 9.49893L12.9723 10.5917L9.26466 7.75875L9.66265 6.66602L13.3704 9.49893ZM4.91345 13.9737C4.60214 13.0795 5.00232 12.3223 5.60231 11.3498C5.68523 11.2155 5.90432 10.9134 6.21262 10.5026L4.93129 14.0214C4.92535 14.0055 4.91913 13.9901 4.91345 13.9737ZM6.40369 30.869C6.0542 31.8242 5.45733 32.5396 4.74408 32.8581C4.03082 33.1766 3.25946 33.0722 2.5993 32.5678C1.93914 32.0634 1.44412 31.2002 1.22288 30.1677C1.00164 29.1352 1.07227 28.0177 1.41926 27.0606L8.11602 8.67226L12.7922 12.2452C11.8307 11.6401 10.4305 10.8788 9.59545 10.8703C8.97188 10.8644 7.31417 10.8478 6.7621 13.5571C6.53049 14.6935 6.64199 15.7368 7.09336 16.6578C7.62247 17.7371 8.52707 18.4203 9.16144 18.84C9.20622 18.8697 9.2512 18.8975 9.29618 18.9253H5.41234C5.2673 18.9253 5.1282 19.0088 5.02564 19.1573C4.92308 19.3059 4.86546 19.5074 4.86546 19.7174C4.86546 19.9275 4.92308 20.129 5.02564 20.2776C5.1282 20.4261 5.2673 20.5096 5.41234 20.5096H10.1764L6.40369 30.869ZM11.2735 22.1071C11.0062 22.6185 10.7205 22.9208 10.4808 23.069L11.6555 19.8436L12.331 20.0498C12.331 20.0498 11.5148 21.6454 11.2735 22.1071ZM13.8108 23.1245C13.407 24.1688 12.7751 24.4544 12.5418 24.3703C12.4344 24.3313 12.149 24.2281 12.1919 23.3892C12.2057 23.1866 12.2369 22.9873 12.2846 22.7958C12.6243 22.1399 13.469 20.4852 13.469 20.4852L14.6391 21.0109C14.6391 21.0109 14.0353 22.5442 13.8108 23.1244V23.1245Z" fill="#C4CCDD"/>
</svg>
