<svg width="35" height="35" viewBox="0 0 35 35" fill="none" xmlns="http://www.w3.org/2000/svg">
<path d="M17.5 21.1914C19.3877 21.1914 20.918 19.6611 20.918 17.7734C20.918 15.8857 19.3877 14.3555 17.5 14.3555C15.6123 14.3555 14.082 15.8857 14.082 17.7734C14.082 19.6611 15.6123 21.1914 17.5 21.1914Z" fill="#C4CCDD"/>
<path d="M34.3624 13.9572C33.5117 13.1065 32.1324 13.1065 31.2817 13.9572L22.3217 22.9172C22.0493 23.1896 21.6799 23.3426 21.2948 23.3426H13.7062C13.5155 23.3426 13.3266 23.3051 13.1504 23.2321C12.9742 23.1591 12.8141 23.0521 12.6793 22.9172L3.71929 13.9572C2.86856 13.1065 1.48927 13.1065 0.638538 13.9572C-0.212195 14.808 -0.212195 16.1873 0.638538 17.038L10.9652 27.3647V34.9547L24.0358 35V27.3647L34.3625 17.038C35.2131 16.1873 35.2131 14.808 34.3624 13.9572ZM13.8869 7.56481L13.377 10.5378C13.3447 10.7264 13.3658 10.9203 13.4379 11.0975C13.51 11.2747 13.6302 11.4282 13.785 11.5406C13.9398 11.6531 14.1229 11.72 14.3137 11.7338C14.5046 11.7476 14.6954 11.7078 14.8648 11.6188L17.5347 10.2151L20.2046 11.6188C20.374 11.7079 20.5649 11.7478 20.7557 11.734C20.9465 11.7202 21.1297 11.6533 21.2845 11.5408C21.4393 11.4283 21.5595 11.2748 21.6316 11.0976C21.7037 10.9203 21.7248 10.7265 21.6925 10.5379L21.1826 7.56488L23.3426 5.45935C23.4796 5.32581 23.5766 5.1566 23.6224 4.97085C23.6683 4.78509 23.6612 4.59021 23.6021 4.40825C23.543 4.22627 23.4342 4.06447 23.2879 3.94113C23.1416 3.8178 22.9637 3.73787 22.7744 3.71037L19.7893 3.27656L18.4542 0.571582C18.3695 0.40001 18.2385 0.255551 18.076 0.154541C17.9135 0.0535315 17.726 0 17.5347 0C17.3433 0 17.1558 0.0535315 16.9933 0.154541C16.8308 0.255551 16.6998 0.40001 16.6151 0.571582L15.2802 3.27649L12.2951 3.7103C12.1058 3.73779 11.9279 3.81772 11.7816 3.94106C11.6353 4.06439 11.5265 4.2262 11.4674 4.40818C11.4083 4.59014 11.4012 4.78502 11.4471 4.97078C11.493 5.15653 11.5899 5.32574 11.7269 5.45928L13.8869 7.56481Z" fill="#C4CCDD"/>
</svg>
