<svg width="35" height="35" viewBox="0 0 35 35" fill="none" xmlns="http://www.w3.org/2000/svg">
<g clip-path="url(#clip0_32_24)">
<path d="M20.7812 6.5625H7.65625C7.0525 6.5625 6.5625 7.0525 6.5625 7.65625C6.5625 8.26 7.0525 8.75 7.65625 8.75H20.7812C21.385 8.75 21.875 8.26 21.875 7.65625C21.875 7.0525 21.385 6.5625 20.7812 6.5625ZM16.4062 10.9375H7.65625C7.0525 10.9375 6.5625 11.4275 6.5625 12.0312C6.5625 12.635 7.0525 13.125 7.65625 13.125H16.4062C17.01 13.125 17.5 12.635 17.5 12.0312C17.5 11.4275 17.01 10.9375 16.4062 10.9375Z" fill="#C4CCDD"/>
<path d="M24.0625 0H4.375C1.96219 0 0 1.96219 0 4.375V26.25C0 26.6744 0.245 27.0616 0.63 27.2409C0.77535 27.3083 0.933558 27.3434 1.09375 27.3438C1.34531 27.3438 1.59469 27.2562 1.79375 27.09L8.05219 21.875H24.0625C26.4753 21.875 28.4375 19.9128 28.4375 17.5V4.375C28.4375 1.96219 26.4753 0 24.0625 0ZM26.25 17.5C26.25 18.7053 25.27 19.6875 24.0625 19.6875H7.65625C7.40031 19.6875 7.15313 19.7772 6.95625 19.9413L2.1875 23.9159V4.375C2.1875 3.16969 3.1675 2.1875 4.375 2.1875H24.0625C25.27 2.1875 26.25 3.16969 26.25 4.375V17.5Z" fill="#C4CCDD"/>
<path d="M30.625 8.75C30.0213 8.75 29.5312 9.24 29.5312 9.84375C29.5312 10.4475 30.0213 10.9375 30.625 10.9375C31.8325 10.9375 32.8125 11.9197 32.8125 13.125V31.6291L29.12 28.6759C28.9258 28.522 28.6853 28.438 28.4375 28.4375H13.125C11.9175 28.4375 10.9375 27.4553 10.9375 26.25V25.1562C10.9375 24.5525 10.4475 24.0625 9.84375 24.0625C9.24 24.0625 8.75 24.5525 8.75 25.1562V26.25C8.75 28.6628 10.7122 30.625 13.125 30.625H28.0525L33.2216 34.7616C33.4165 34.9158 33.6577 34.9998 33.9062 35C34.0659 35 34.2278 34.965 34.3809 34.8928C34.5663 34.8031 34.7227 34.6629 34.8322 34.4885C34.9417 34.314 34.9998 34.1122 35 33.9062V13.125C35 10.7122 33.0378 8.75 30.625 8.75Z" fill="#C4CCDD"/>
</g>
<defs>
<clipPath id="clip0_32_24">
<rect width="35" height="35" fill="white"/>
</clipPath>
</defs>
</svg>
